<svg id="visual" viewBox="0 0 900 300" width="900" height="300" xmlns="http://www.w3.org/2000/svg" xmlns:xlink="http://www.w3.org/1999/xlink" version="1.1"><rect x="0" y="0" width="900" height="300" fill="#FFF"></rect><path d="M0 228L13.7 228.8C27.3 229.7 54.7 231.3 82 230.2C109.3 229 136.7 225 163.8 228.3C191 231.7 218 242.3 245.2 243.8C272.3 245.3 299.7 237.7 327 233.5C354.3 229.3 381.7 228.7 409 230.7C436.3 232.7 463.7 237.3 491 242C518.3 246.7 545.7 251.3 573 250.7C600.3 250 627.7 244 654.8 241.2C682 238.3 709 238.7 736.2 238C763.3 237.3 790.7 235.7 818 238C845.3 240.3 872.7 246.7 886.3 249.8L900 253L900 301L886.3 301C872.7 301 845.3 301 818 301C790.7 301 763.3 301 736.2 301C709 301 682 301 654.8 301C627.7 301 600.3 301 573 301C545.7 301 518.3 301 491 301C463.7 301 436.3 301 409 301C381.7 301 354.3 301 327 301C299.7 301 272.3 301 245.2 301C218 301 191 301 163.8 301C136.7 301 109.3 301 82 301C54.7 301 27.3 301 13.7 301L0 301Z" fill="#00d4fa"></path><path d="M0 239L13.7 239C27.3 239 54.7 239 82 240C109.3 241 136.7 243 163.8 241.5C191 240 218 235 245.2 234.2C272.3 233.3 299.7 236.7 327 240.5C354.3 244.3 381.7 248.7 409 248.2C436.3 247.7 463.7 242.3 491 242C518.3 241.7 545.7 246.3 573 245.3C600.3 244.3 627.7 237.7 654.8 235.5C682 233.3 709 235.7 736.2 239.5C763.3 243.3 790.7 248.7 818 249.3C845.3 250 872.7 246 886.3 244L900 242L900 301L886.3 301C872.7 301 845.3 301 818 301C790.7 301 763.3 301 736.2 301C709 301 682 301 654.8 301C627.7 301 600.3 301 573 301C545.7 301 518.3 301 491 301C463.7 301 436.3 301 409 301C381.7 301 354.3 301 327 301C299.7 301 272.3 301 245.2 301C218 301 191 301 163.8 301C136.7 301 109.3 301 82 301C54.7 301 27.3 301 13.7 301L0 301Z" fill="#00c0f1"></path><path d="M0 258L13.7 258.3C27.3 258.7 54.7 259.3 82 260.5C109.3 261.7 136.7 263.3 163.8 263.5C191 263.7 218 262.3 245.2 260.7C272.3 259 299.7 257 327 257C354.3 257 381.7 259 409 259C436.3 259 463.7 257 491 256.3C518.3 255.7 545.7 256.3 573 257C600.3 257.7 627.7 258.3 654.8 258C682 257.7 709 256.3 736.2 256.5C763.3 256.7 790.7 258.3 818 256C845.3 253.7 872.7 247.3 886.3 244.2L900 241L900 301L886.3 301C872.7 301 845.3 301 818 301C790.7 301 763.3 301 736.2 301C709 301 682 301 654.8 301C627.7 301 600.3 301 573 301C545.7 301 518.3 301 491 301C463.7 301 436.3 301 409 301C381.7 301 354.3 301 327 301C299.7 301 272.3 301 245.2 301C218 301 191 301 163.8 301C136.7 301 109.3 301 82 301C54.7 301 27.3 301 13.7 301L0 301Z" fill="#00ace6"></path><path d="M0 262L13.7 263.2C27.3 264.3 54.7 266.7 82 264.8C109.3 263 136.7 257 163.8 253.7C191 250.3 218 249.7 245.2 249.2C272.3 248.7 299.7 248.3 327 251C354.3 253.7 381.7 259.3 409 262.3C436.3 265.3 463.7 265.7 491 264.7C518.3 263.7 545.7 261.3 573 260.5C600.3 259.7 627.7 260.3 654.8 260.7C682 261 709 261 736.2 259.8C763.3 258.7 790.7 256.3 818 255.8C845.3 255.3 872.7 256.7 886.3 257.3L900 258L900 301L886.3 301C872.7 301 845.3 301 818 301C790.7 301 763.3 301 736.2 301C709 301 682 301 654.8 301C627.7 301 600.3 301 573 301C545.7 301 518.3 301 491 301C463.7 301 436.3 301 409 301C381.7 301 354.3 301 327 301C299.7 301 272.3 301 245.2 301C218 301 191 301 163.8 301C136.7 301 109.3 301 82 301C54.7 301 27.3 301 13.7 301L0 301Z" fill="#0097d8"></path><path d="M0 258L13.7 258.2C27.3 258.3 54.7 258.7 82 260.7C109.3 262.7 136.7 266.3 163.8 267.2C191 268 218 266 245.2 264.2C272.3 262.3 299.7 260.7 327 262.3C354.3 264 381.7 269 409 269.8C436.3 270.7 463.7 267.3 491 265C518.3 262.7 545.7 261.3 573 262.7C600.3 264 627.7 268 654.8 268C682 268 709 264 736.2 264.2C763.3 264.3 790.7 268.7 818 270.3C845.3 272 872.7 271 886.3 270.5L900 270L900 301L886.3 301C872.7 301 845.3 301 818 301C790.7 301 763.3 301 736.2 301C709 301 682 301 654.8 301C627.7 301 600.3 301 573 301C545.7 301 518.3 301 491 301C463.7 301 436.3 301 409 301C381.7 301 354.3 301 327 301C299.7 301 272.3 301 245.2 301C218 301 191 301 163.8 301C136.7 301 109.3 301 82 301C54.7 301 27.3 301 13.7 301L0 301Z" fill="#0083c9"></path><path d="M0 273L13.7 271.8C27.3 270.7 54.7 268.3 82 268.3C109.3 268.3 136.7 270.7 163.8 272.5C191 274.3 218 275.7 245.2 275C272.3 274.3 299.7 271.7 327 269.8C354.3 268 381.7 267 409 268.5C436.3 270 463.7 274 491 275.5C518.3 277 545.7 276 573 275.2C600.3 274.3 627.7 273.7 654.8 272.2C682 270.7 709 268.3 736.2 267.3C763.3 266.3 790.7 266.7 818 266.8C845.3 267 872.7 267 886.3 267L900 267L900 301L886.3 301C872.7 301 845.3 301 818 301C790.7 301 763.3 301 736.2 301C709 301 682 301 654.8 301C627.7 301 600.3 301 573 301C545.7 301 518.3 301 491 301C463.7 301 436.3 301 409 301C381.7 301 354.3 301 327 301C299.7 301 272.3 301 245.2 301C218 301 191 301 163.8 301C136.7 301 109.3 301 82 301C54.7 301 27.3 301 13.7 301L0 301Z" fill="#096eb9"></path><path d="M0 279L13.7 279.5C27.3 280 54.7 281 82 280.5C109.3 280 136.7 278 163.8 278C191 278 218 280 245.2 281C272.3 282 299.7 282 327 281.3C354.3 280.7 381.7 279.3 409 279C436.3 278.7 463.7 279.3 491 279.3C518.3 279.3 545.7 278.7 573 278.8C600.3 279 627.7 280 654.8 280.8C682 281.7 709 282.3 736.2 281.5C763.3 280.7 790.7 278.3 818 277.3C845.3 276.3 872.7 276.7 886.3 276.8L900 277L900 301L886.3 301C872.7 301 845.3 301 818 301C790.7 301 763.3 301 736.2 301C709 301 682 301 654.8 301C627.7 301 600.3 301 573 301C545.7 301 518.3 301 491 301C463.7 301 436.3 301 409 301C381.7 301 354.3 301 327 301C299.7 301 272.3 301 245.2 301C218 301 191 301 163.8 301C136.7 301 109.3 301 82 301C54.7 301 27.3 301 13.7 301L0 301Z" fill="#185aa7"></path><path d="M0 285L13.7 285C27.3 285 54.7 285 82 284.8C109.3 284.7 136.7 284.3 163.8 284.5C191 284.7 218 285.3 245.2 285.8C272.3 286.3 299.7 286.7 327 286.2C354.3 285.7 381.7 284.3 409 284C436.3 283.7 463.7 284.3 491 284.3C518.3 284.3 545.7 283.7 573 284.2C600.3 284.7 627.7 286.3 654.8 286.5C682 286.7 709 285.3 736.2 284.7C763.3 284 790.7 284 818 284.8C845.3 285.7 872.7 287.3 886.3 288.2L900 289L900 301L886.3 301C872.7 301 845.3 301 818 301C790.7 301 763.3 301 736.2 301C709 301 682 301 654.8 301C627.7 301 600.3 301 573 301C545.7 301 518.3 301 491 301C463.7 301 436.3 301 409 301C381.7 301 354.3 301 327 301C299.7 301 272.3 301 245.2 301C218 301 191 301 163.8 301C136.7 301 109.3 301 82 301C54.7 301 27.3 301 13.7 301L0 301Z" fill="#224694"></path></svg>